<svg xmlns="http://www.w3.org/2000/svg" version="1.1" xmlns:xlink="http://www.w3.org/1999/xlink" xmlns:svgjs="http://svgjs.dev/svgjs" width="1500" height="1500" viewBox="0 0 1500 1500"><rect width="1500" height="1500" fill="#000000"></rect><g transform="matrix(0.6666666666666666,0,0,0.6666666666666666,250.00110085406993,187.66666666666674)"><svg viewBox="0 0 320 360" data-background-color="#ffffff" preserveAspectRatio="xMidYMid meet" height="1687" width="1500" xmlns="http://www.w3.org/2000/svg" xmlns:xlink="http://www.w3.org/1999/xlink"><g id="tight-bounds" transform="matrix(1,0,0,1,0.00010353528136874957,0)"><svg viewBox="0 0 320 360" height="360" width="320"><g><svg></svg></g><g><svg viewBox="0 0 320 360" height="360" width="320"><g><path d="M307.925 179.999l6.575-11.387c11.322-19.607 4.604-44.679-15.003-56.001l-11.387-6.575v-13.151c0-22.639-18.354-40.994-40.994-40.994h-13.151l-6.575-11.387c-11.322-19.607-36.393-26.325-56.001-15.003l-11.39 6.572-11.387-6.576c-19.607-11.318-44.679-4.6-56.001 15.007l-6.575 11.387h-13.151c-22.639 0-40.994 18.354-40.994 40.994v13.151l-11.387 6.575c-19.607 11.322-26.325 36.393-15.003 56.001l6.572 11.387-6.576 11.387c-11.318 19.607-4.6 44.679 15.007 56l11.387 6.576v13.15c0 22.639 18.354 40.994 40.994 40.994h13.151l6.575 11.387c11.322 19.607 36.393 26.325 56.001 15.003l11.387-6.571 11.387 6.575c19.607 11.322 44.679 4.604 56-15.003l6.576-11.387h13.15c22.639 0 40.994-18.354 40.994-40.994v-13.151l11.387-6.575c19.607-11.322 26.325-36.393 15.003-56.001zM297.702 115.716c8.655 4.996 14.842 13.062 17.428 22.713 2.586 9.65 1.261 19.734-3.735 28.384l-5.538 9.596-17.747-30.74v-35.494zM251.155 271.155l-57.791 33.365h-66.731l-57.791-33.365-33.365-57.791v-66.731l33.365-57.791 57.791-33.365h66.731l57.791 33.365 33.365 57.791v66.731zM284.517 220.539v31.351l-27.151 15.676zM247.566 277.366l-15.676 27.151h-31.351zM187.15 308.106l-27.151 15.676-27.151-15.676zM119.459 304.517h-31.352l-15.676-27.151zM62.632 267.566l-27.151-15.676v-31.351zM31.891 207.15l-15.675-27.151 15.675-27.151zM35.481 139.459v-31.352l27.151-15.676zM72.431 82.632l15.676-27.151h31.352zM132.848 51.891l27.151-15.675 27.151 15.675zM200.539 55.481h31.351l15.676 27.151zM257.366 92.431l27.151 15.676v31.352zM288.106 152.848l15.676 27.151-15.676 27.151zM247.112 55.481c9.992 0 19.384 3.889 26.452 10.956 7.063 7.063 10.956 16.46 10.957 26.452v11.079l-30.741-17.747-17.747-30.74zM173.18 28.606c8.655-4.996 18.735-6.322 28.385-3.735 9.65 2.586 17.716 8.777 22.712 17.428l5.538 9.596h-35.494l-30.741-17.747zM95.716 42.295c4.996-8.655 13.062-14.842 22.713-17.428 9.65-2.586 19.734-1.261 28.384 3.736l9.596 5.537-30.74 17.747h-35.494zM35.481 92.885c0-9.992 3.889-19.384 10.956-26.452 7.063-7.063 16.46-10.956 26.452-10.956h11.079l-17.747 30.74-30.74 17.747zM8.606 166.817c-4.996-8.655-6.322-18.735-3.735-28.385 2.586-9.65 8.777-17.716 17.428-22.712l9.596-5.538v35.495l-17.747 30.74zM22.295 244.281c-8.655-4.996-14.842-13.062-17.428-22.712-2.586-9.65-1.261-19.734 3.736-28.385l5.537-9.596 17.747 30.74v35.495zM72.885 304.517c-9.992 0-19.384-3.889-26.452-10.957-7.063-7.063-10.956-16.46-10.956-26.451v-11.08l30.74 17.747 17.747 30.741zM146.817 331.391c-8.655 4.996-18.735 6.322-28.385 3.735-9.65-2.586-17.716-8.777-22.712-17.428l-5.538-9.596h35.495l30.74 17.747zM224.281 317.702c-4.996 8.655-13.062 14.842-22.712 17.428-9.65 2.586-19.734 1.261-28.385-3.735l-9.596-5.538 30.74-17.747h35.495zM284.517 267.112c0 9.992-3.889 19.384-10.957 26.452-7.063 7.063-16.46 10.956-26.451 10.957h-11.08l17.747-30.741 30.741-17.747zM315.13 221.565c-2.586 9.65-8.777 17.716-17.428 22.712l-9.596 5.538v-35.494l17.747-30.741 5.538 9.596c4.996 8.658 6.326 18.739 3.739 28.389z" fill="#ffffff" fill-rule="nonzero" stroke="none" stroke-width="1" stroke-linecap="butt" stroke-linejoin="miter" stroke-miterlimit="10" stroke-dasharray="" stroke-dashoffset="0" font-family="none" font-weight="none" font-size="none" text-anchor="none" style="mix-blend-mode: normal" data-fill-palette-color="tertiary"></path></g><g transform="matrix(1,0,0,1,64,165.08884094920572)"><svg viewBox="0 0 192 29.822318101588554" height="29.822318101588554" width="192"><g><svg viewBox="0 0 192 29.822318101588554" height="29.822318101588554" width="192"><g><svg viewBox="0 0 192 29.822318101588554" height="29.822318101588554" width="192"><g><svg viewBox="0 0 192 29.822318101588554" height="29.822318101588554" width="192"><g id="textblocktransform"><svg viewBox="0 0 192 29.822318101588554" height="29.822318101588554" width="192" id="textblock"><g><svg viewBox="0 0 192 29.822318101588554" height="29.822318101588554" width="192"><g transform="matrix(1,0,0,1,0,0)"><svg width="192" viewBox="1 -38.9 254.93 39.6" height="29.822318101588554" data-palette-color="#8dbdff"><path d="M31.95 0L1 0 1-8.2 3.5-8.2 3.5-30.7 1-30.7 1-38.9 22.1-38.9 22.1-30.7 17.5-30.7 17.5-8.2 22-8.2 22-12.8 31.95-12.8 31.95 0ZM48.45 0.7Q41.35 0.7 37.35-3.03 33.35-6.75 33.35-13.9L33.35-13.9Q33.35-21.05 37.35-24.78 41.35-28.5 48.45-28.5L48.45-28.5Q55.5-28.5 58.62-24.83 61.75-21.15 61.75-15.7L61.75-15.7 61.75-12.1 45.55-12.1 45.55-11.8Q45.55-9.95 46.65-9.08 47.75-8.2 50.3-8.2L50.3-8.2Q53.35-8.2 56.1-8.65 58.85-9.1 60.9-9.8L60.9-9.8 60.9-1.8Q59.15-0.85 55.77-0.08 52.4 0.7 48.45 0.7L48.45 0.7ZM45.55-17.6L51.35-17.6 51.35-18.2Q51.35-19.9 50.62-20.65 49.9-21.4 48.45-21.4L48.45-21.4Q47-21.4 46.27-20.63 45.55-19.85 45.55-18.2L45.55-18.2 45.55-17.6ZM90.2-8.2L92.4-8.2 92.4 0 79.2 0 79.2-3.4Q78.09-1.8 76.12-0.55 74.15 0.7 71.3 0.7L71.3 0.7Q67.55 0.7 65.4-1.3 63.25-3.3 63.25-6.95L63.25-6.95Q63.25-16.4 79.3-16.65L79.3-16.65Q79.15-18.35 78-18.98 76.84-19.6 74.09-19.6L74.09-19.6Q71.84-19.6 69.27-19.13 66.7-18.65 64.55-17.85L64.55-17.85 64.55-27.05Q67.2-27.7 70.3-28.1 73.4-28.5 76.34-28.5L76.34-28.5Q83.8-28.5 87-25.8 90.2-23.1 90.2-17.45L90.2-17.45 90.2-8.2ZM79.2-11.4L79.2-11.7Q76.95-11.7 75.72-11.1 74.5-10.5 74.5-9.1L74.5-9.1Q74.5-8.25 75.02-7.73 75.55-7.2 76.5-7.2L76.5-7.2Q77.8-7.2 78.5-8.3 79.2-9.4 79.2-11.4L79.2-11.4ZM115.34-28.5Q116.34-28.5 117.24-28.3 118.14-28.1 118.74-27.8L118.74-27.8 118.74-18.25Q116.69-19.1 114.34-19.1L114.34-19.1Q111.19-19.1 109.49-17.45 107.79-15.8 107.79-12.55L107.79-12.55 107.79-8.2 112.29-8.2 112.29 0 94.09 0 94.09-8.2 96.29-8.2 96.29-19.6 94.09-19.6 94.09-27.8 107.79-27.8 107.79-24.15Q109.19-26.25 110.99-27.38 112.79-28.5 115.34-28.5L115.34-28.5ZM151.34-8.2L153.54-8.2 153.54 0 137.74 0 137.74-8.2 139.84-8.2 139.84-16.4Q139.84-18.05 139.14-18.82 138.44-19.6 137.04-19.6L137.04-19.6Q134.04-19.6 134.04-16.4L134.04-16.4 134.04-8.2 136.14-8.2 136.14 0 120.34 0 120.34-8.2 122.54-8.2 122.54-19.6 120.34-19.6 120.34-27.8 134.04-27.8 134.04-23.9Q137.64-28.5 143.04-28.5L143.04-28.5Q147.19-28.5 149.26-25.9 151.34-23.3 151.34-18.75L151.34-18.75 151.34-8.2ZM186.14-8.2L188.34-8.2 188.34 0 172.54 0 172.54-8.2 174.64-8.2 174.64-16.4Q174.64-18.05 173.94-18.82 173.24-19.6 171.84-19.6L171.84-19.6Q168.84-19.6 168.84-16.4L168.84-16.4 168.84-8.2 170.94-8.2 170.94 0 155.14 0 155.14-8.2 157.34-8.2 157.34-30.7 155.14-30.7 155.14-38.9 168.84-38.9 168.84-23.9Q170.69-26.2 172.84-27.35 174.99-28.5 177.84-28.5L177.84-28.5Q181.99-28.5 184.06-25.9 186.14-23.3 186.14-18.75L186.14-18.75 186.14-8.2ZM220.64-8.2L222.84-8.2 222.84 0 209.14 0 209.14-3.9Q205.54 0.7 200.14 0.7L200.14 0.7Q195.99 0.7 193.91-1.9 191.84-4.5 191.84-9.05L191.84-9.05 191.84-19.6 189.64-19.6 189.64-27.8 203.34-27.8 203.34-11.4Q203.34-9.75 204.06-8.97 204.79-8.2 206.24-8.2L206.24-8.2Q207.69-8.2 208.41-8.97 209.14-9.75 209.14-11.4L209.14-11.4 209.14-19.6 206.44-19.6 206.44-27.8 220.64-27.8 220.64-8.2ZM245.68 0.7Q243.13 0.7 241.16-0.55 239.18-1.8 237.93-3.4L237.93-3.4 237.93 0 224.23 0 224.23-8.2 226.43-8.2 226.43-30.7 224.23-30.7 224.23-38.9 237.93-38.9 237.93-24.4Q239.18-26 241.16-27.25 243.13-28.5 245.68-28.5L245.68-28.5Q250.78-28.5 253.36-24.7 255.93-20.9 255.93-13.9L255.93-13.9Q255.93-6.9 253.36-3.1 250.78 0.7 245.68 0.7L245.68 0.7ZM240.83-8.2Q242.28-8.2 243.01-8.97 243.73-9.75 243.73-11.4L243.73-11.4 243.73-16.4Q243.73-18.05 243.01-18.82 242.28-19.6 240.83-19.6L240.83-19.6Q239.38-19.6 238.66-18.82 237.93-18.05 237.93-16.4L237.93-16.4 237.93-11.4Q237.93-9.75 238.66-8.97 239.38-8.2 240.83-8.2L240.83-8.2Z" opacity="1" transform="matrix(1,0,0,1,0,0)" fill="#ffffff" class="wordmark-text-0" data-fill-palette-color="primary" id="text-0"></path></svg></g></svg></g></svg></g></svg></g></svg></g></svg></g></svg></g></svg></g><defs></defs></svg><rect width="320" height="360" fill="none" stroke="none" visibility="hidden"></rect></g></svg></g></svg>